#!OML:ASF F:\VICON\USERDATA\INSTALL\Justin_Nancy\Justin_Nancy.ASF
:FULLY-SPECIFIED
:DEGREES
159
root 8.64578 17.5159 -7.41429 1.21751 -14.7818 6.89941
lowerback 5.2817 -2.28078 -6.38406
upperback -0.213697 -3.3941 1.51391
thorax -2.72251 -1.59254 5.40316
lowerneck -14.8143 -4.01637 -10.4079
upperneck 23.6797 -4.51544 5.70134
head 10.401 -2.38403 3.17104
rclavicle -3.598e-014 2.38542e-014
rhumerus -34.6595 -19.1582 -75.1648
rradius 27.2642
rwrist 9.38496
rhand -12.211 16.5734
rfingers 7.12502
rthumb 13.8537 -12.9452
lclavicle -3.598e-014 2.38542e-014
lhumerus -23.4189 12.1821 80.8974
lradius 28.6482
lwrist -9.57247
lhand -17.2496 23.8307
lfingers 7.12502
lthumb 8.99446 53.6189
rfemur -25.0488 -6.88865 24.108
rtibia 16.8074
rfoot -1.96622 -16.4152
rtoes 10.512
lfemur 4.00302 2.22537 -29.0155
ltibia 25.8106
lfoot -10.7928 2.30068
ltoes -22.1787
160
root 8.59926 17.5307 -7.28932 1.31616 -15.3503 6.47135
lowerback 5.31544 -2.19934 -5.99314
upperback -0.265753 -3.2604 1.64605
thorax -2.8275 -1.52542 5.31653
lowerneck -15.6717 -3.97811 -9.81748
upperneck 24.4506 -4.37119 5.01073
head 10.8062 -2.34393 2.84333
rclavicle 8.64713e-015 -1.11319e-014
rhumerus -34.7855 -19.173 -75.0687
rradius 27.2229
rwrist 9.5012
rhand -12.16 16.4848
rfingers 7.12502
rthumb 13.9028 -13.0305
lclavicle 8.64713e-015 -1.11319e-014
lhumerus -23.4719 12.2069 80.9897
lradius 28.3371
lwrist -9.46823
lhand -17.1154 24.1201
lfingers 7.12502
lthumb 9.12397 53.9027
rfemur -24.507 -6.24112 24.5315
rtibia 16.4471
rfoot -1.45828 -17.9987
rtoes 7.35171
lfemur 3.72394 2.25632 -28.4912
ltibia 27.06
lfoot -10.125 2.01208
ltoes -23.6596
161
root 8.55129 17.5462 -7.16764 1.44197 -15.9989 5.95986
lowerback 5.25133 -2.11659 -5.5742
upperback -0.250943 -3.11445 1.82833
thorax -2.80704 -1.45901 5.25788
lowerneck -15.9492 -3.96771 -9.52954
upperneck 24.6921 -4.29566 4.56921
head 10.9269 -2.33563 2.64434
rclavicle -2.25621e-014 1.66979e-014
rhumerus -34.645 -19.6502 -74.9012
rradius 26.86
rwrist 10.133
rhand -12.3445 16.4985
rfingers 7.12502
rthumb 13.725 -13.0288
lclavicle -2.25621e-014 1.66979e-014
lhumerus -23.6227 12.5597 81.0808
lradius 28.1953
lwrist -9.62891
lhand -17.4613 23.9555
lfingers 7.12502
lthumb 8.79022 53.7524
rfemur -23.9623 -5.6342 25.1173
rtibia 16.187
rfoot -0.284382 -17.5588
rtoes 14.7071
lfemur 3.49386 2.55195 -27.8711
ltibia 28.3327
lfoot -9.46242 1.76977
ltoes -26.6486
162
root 8.50387 17.5574 -7.03474 1.53942 -16.8264 5.59691
lowerback 4.95386 -2.01543 -5.19932
upperback -0.113806 -2.93714 1.90585
thorax -2.53478 -1.38817 5.09705
lowerneck -15.864 -3.96623 -9.476
upperneck 24.4948 -4.28999 4.49028
head 10.8334 -2.33571 2.60589
rclavicle -6.87795e-014 2.38542e-015
rhumerus -34.3122 -20.1341 -74.8444
rradius 26.3976
rwrist 10.6125
rhand -12.3354 16.9317
rfingers 7.12502
rthumb 13.7337 -12.5951
lclavicle -6.87795e-014 2.38542e-015
lhumerus -23.7314 13.153 81.0639
lradius 28.2766
lwrist -9.51462
lhand -17.1639 24.151
lfingers 7.12502
lthumb 9.07717 53.9357
rfemur -23.497 -5.312 25.6648
rtibia 16.1468
rfoot 0.869086 -15.9504
rtoes 18.753
lfemur 3.19822 3.07164 -27.4089
ltibia 29.6432
lfoot -8.71112 1.3779
ltoes -29.3601
163
root 8.45454 17.5772 -6.89584 1.59296 -17.6219 5.44339
lowerback 4.7386 -1.87471 -4.98855
upperback -0.0801243 -2.72634 1.91741
thorax -2.41437 -1.29025 4.96681
lowerneck -15.425 -3.99011 -9.74836
upperneck 24.3056 -4.37305 4.78957
head 10.6986 -2.36722 2.75111
rclavicle -6.29153e-014 2.38542e-014
rhumerus -34.3554 -20.175 -74.7985
rradius 26.3493
rwrist 10.6614
rhand -12.2735 16.8266
rfingers 7.12502
rthumb 13.7934 -12.6961
lclavicle -6.29153e-014 2.38542e-014
lhumerus -23.945 13.6187 81.0755
lradius 28.3143
lwrist -9.31436
lhand -16.1282 26.0885
lfingers 7.12502
lthumb 10.0765 55.8273
rfemur -23.0964 -4.91676 25.9547
rtibia 16.2988
rfoot 1.33037 -14.8862
rtoes 20.0389
lfemur 2.47186 3.03563 -27.1212
ltibia 30.9172
lfoot -7.35357 0.641966
ltoes -26.7987
164
root 8.40677 17.5897 -6.75962 1.49789 -18.3961 5.46422
lowerback 4.75047 -1.75328 -4.96344
upperback -0.171879 -2.56561 1.88181
thorax -2.5384 -1.20434 4.90943
lowerneck -13.9796 -3.83082 -10.363
upperneck 23.4832 -4.34114 5.62797
head 10.1496 -2.32196 3.16578
rclavicle 6.98728e-014 -2.14687e-014
rhumerus -34.698 -20.2845 -74.6403
rradius 26.3307
rwrist 11.0661
rhand -12.3418 16.7278
rfingers 7.12502
rthumb 13.7276 -12.7993
lclavicle 6.98728e-014 -2.14687e-014
lhumerus -24.3527 13.7928 81.034
lradius 28.2768
lwrist -9.12367
lhand -15.4282 27.4633
lfingers 7.12502
lthumb 10.7517 57.1682
rfemur -22.7432 -4.56729 26.0236
rtibia 16.7399
rfoot 1.31348 -13.9542
rtoes 20.4343
lfemur 2.28118 3.42448 -26.987
ltibia 32.1268
lfoot -6.05494 0.0284471
ltoes -27.1579
165
root 8.35361 17.5928 -6.63243 1.30977 -19.2946 5.44207
lowerback 4.7886 -1.63367 -5.01613
upperback -0.107834 -2.41011 1.87923
thorax -2.51018 -1.12842 4.92743
lowerneck -15.1596 -3.89945 -9.77482
upperneck 24.4455 -4.32316 4.95961
head 10.6978 -2.33528 2.82904
rclavicle -9.14409e-015 2.94201e-014
rhumerus -34.6697 -20.6438 -74.4509
rradius 26.0069
rwrist 11.753
rhand -12.0593 17.5601
rfingers 7.12502
rthumb 13.9999 -11.9485
lclavicle -9.14409e-015 2.94201e-014
lhumerus -24.6326 14.2589 80.9372
lradius 28.1319
lwrist -9.17009
lhand -15.9792 25.7717
lfingers 7.12502
lthumb 10.2202 55.5035
rfemur -22.4209 -3.95651 26.15
rtibia 17.4044
rfoot 1.24544 -13.4026
rtoes 20.9455
lfemur 2.07647 4.00592 -26.717
ltibia 33.2852
lfoot -4.47007 -0.568434
ltoes -26.3541
166
root 8.29758 17.6011 -6.50851 1.00441 -20.1968 5.76473
lowerback 4.8626 -1.48942 -5.41535
upperback 0.0134028 -2.24465 1.78151
thorax -2.43519 -1.04665 5.04165
lowerneck -16.029 -3.95042 -9.47392
upperneck 25.0181 -4.31975 4.64071
head 11.0657 -2.34052 2.66022
rclavicle 6.95746e-015 1.27222e-014
rhumerus -34.5638 -20.8343 -74.4057
rradius 25.8936
rwrist 12.2178
rhand -11.4913 18.1791
rfingers 7.12502
rthumb 14.5472 -11.2908
lclavicle 6.95746e-015 1.27222e-014
lhumerus -25.0306 14.602 80.9039
lradius 28.4835
lwrist -8.6949
lhand -15.9206 25.8132
lfingers 7.12502
lthumb 10.2767 55.5421
rfemur -22.1411 -3.3072 25.8992
rtibia 18.1844
rfoot 0.828044 -13.2761
rtoes 22.3751
lfemur 1.72072 4.54749 -26.7756
ltibia 34.4962
lfoot -2.43428 -1.2453
ltoes -25.0782
167
root 8.24275 17.6177 -6.38602 0.792271 -20.8309 6.00374
lowerback 4.93648 -1.41002 -5.67672
upperback 0.069675 -2.15958 1.6654
thorax -2.42417 -1.00333 5.06471
lowerneck -16.1884 -3.92655 -9.34569
upperneck 25.1222 -4.30675 4.62692
head 11.1307 -2.32404 2.63511
rclavicle 2.72335e-014 7.15625e-015
rhumerus -34.5041 -20.911 -74.5534
rradius 25.8726
rwrist 12.2207
rhand -11.5504 18.3815
rfingers 7.12502
rthumb 14.4902 -11.0925
lclavicle 2.72335e-014 7.15625e-015
lhumerus -25.5621 14.8152 80.8772
lradius 29.2049
lwrist -7.84764
lhand -14.8485 28.2567
lfingers 7.12502
lthumb 11.3109 57.9317
rfemur -21.8578 -3.0654 25.7491
rtibia 18.9072
rfoot 0.138429 -12.8918
rtoes 23.0295
lfemur 1.37415 4.84766 -26.7378
ltibia 35.7315
lfoot -0.359487 -2.22088
ltoes -25.0334
168
root 8.1925 17.6016 -6.26484 0.560969 -21.2751 6.17155
lowerback 4.91645 -1.4002 -5.82068
upperback 0.173526 -2.15391 1.57002
thorax -2.30439 -1.00608 5.043
lowerneck -15.9657 -3.85271 -9.38039
upperneck 24.8922 -4.25614 4.8008
head 11.0004 -2.28345 2.71192
rclavicle -2.22639e-014 6.36111e-015
rhumerus -34.3895 -20.9491 -74.7397
rradius 25.9196
rwrist 12.0748
rhand -11.6189 18.0241
rfingers 7.12502
rthumb 14.4242 -11.4547
lclavicle -2.22639e-014 6.36111e-015
lhumerus -25.9926 15.0275 80.8535
lradius 29.1696
lwrist -8.48839
lhand -14.9332 27.6971
lfingers 7.12502
lthumb 11.2292 57.3766
rfemur -21.5024 -3.00675 25.6863
rtibia 19.3016
rfoot -0.204195 -12.485
rtoes 21.459
lfemur 1.14862 4.92905 -26.6393
ltibia 37.0535
lfoot 1.30732 -3.14762
ltoes -28.7899
169
root 8.14099 17.6019 -6.14359 0.507169 -22.0444 5.92109
lowerback 4.93379 -1.3335 -5.6074
upperback 0.196502 -2.0523 1.6242
thorax -2.30875 -0.957876 4.97296
lowerneck -15.6991 -3.80556 -9.53426
upperneck 24.7533 -4.22823 5.00647
head 10.9021 -2.26338 2.81805
rclavicle 1.67973e-014 -1.43125e-014
rhumerus -34.3758 -20.4542 -74.9946
rradius 26.0579
rwrist 11.8249
rhand -11.5624 17.5183
rfingers 7.12502
rthumb 14.4786 -11.9565
lclavicle 1.67973e-014 -1.43125e-014
lhumerus -26.3671 14.9766 80.8789
lradius 29.1626
lwrist -8.21707
lhand -14.7596 28.0104
lfingers 7.12502
lthumb 11.3966 57.6807
rfemur -20.8533 -2.59423 26.0472
rtibia 19.261
rfoot -0.624438 -12.2529
rtoes 21.3881
lfemur 0.498559 5.17302 -26.1257
ltibia 38.5161
lfoot 3.41531 -4.13499
ltoes -28.8835
170
root 8.08822 17.6357 -6.02079 0.589937 -22.939 5.50419
lowerback 4.96612 -1.26134 -5.22126
upperback 0.137202 -1.93444 1.72771
thorax -2.41217 -0.898041 4.85765
lowerneck -15.4563 -3.74111 -9.6284
upperneck 24.7359 -4.16826 5.11133
head 10.8474 -2.23722 2.88288
rclavicle -6.03311e-014 0
rhumerus -34.4228 -19.7083 -75.3225
rradius 26.2564
rwrist 11.3829
rhand -11.4936 17.5648
rfingers 7.12502
rthumb 14.5449 -11.9053
lclavicle -6.03311e-014 0
lhumerus -26.9798 14.8941 80.8738
lradius 29.2959
lwrist -7.87861
lhand -15.063 27.4436
lfingers 7.12502
lthumb 11.104 57.1298
rfemur -20.079 -2.3837 26.6137
rtibia 18.8896
rfoot -0.738427 -11.57
rtoes 21.3703
lfemur -0.638616 5.36751 -25.5066
ltibia 40.1912
lfoot 5.66614 -5.32112
ltoes -28.4377
171
root 8.03426 17.6682 -5.89484 0.564294 -23.6539 5.17002
lowerback 5.08859 -1.17884 -4.90477
upperback 0.108684 -1.81109 1.78754
thorax -2.53308 -0.835477 4.73763
lowerneck -15.3758 -3.76501 -9.56019
upperneck 24.8086 -4.21343 5.03076
head 10.8591 -2.26442 2.83689
rclavicle -3.67752e-014 2.46493e-014
rhumerus -34.3032 -20.0288 -75.295
rradius 26.0506
rwrist 11.7116
rhand -11.389 17.9922
rfingers 7.12502
rthumb 14.6457 -11.4706
lclavicle -3.67752e-014 2.46493e-014
lhumerus -27.4759 14.7239 80.9296
lradius 29.2817
lwrist -7.83344
lhand -15.8697 26.4085
lfingers 7.12502
lthumb 10.3259 56.1349
rfemur -19.0608 -2.41222 27.0646
rtibia 18.2566
rfoot -0.873777 -10.8434
rtoes 21.092
lfemur -1.69768 5.43226 -24.9588
ltibia 42.0214
lfoot 7.33984 -6.60031
ltoes -27.3561
172
root 7.98151 17.6844 -5.76845 0.566337 -24.1758 4.86213
lowerback 5.02705 -1.17084 -4.55414
upperback 0.219052 -1.77534 1.82455
thorax -2.3976 -0.828078 4.57107
lowerneck -15.4769 -3.80375 -9.55847
upperneck 24.7729 -4.25322 5.01417
head 10.8688 -2.28259 2.82319
rclavicle 3.37934e-015 0
rhumerus -33.9638 -20.4465 -75.2975
rradius 25.9477
rwrist 12.0792
rhand -11.1026 18.189
rfingers 7.12502
rthumb 14.9217 -11.2535
lclavicle 3.37934e-015 0
lhumerus -27.5156 14.5181 81.0489
lradius 29.0957
lwrist -7.61097
lhand -15.8665 26.0237
lfingers 7.12502
lthumb 10.3289 55.75
rfemur -17.9622 -2.41288 27.4245
rtibia 17.44
rfoot -1.02475 -10.2997
rtoes 21.0819
lfemur -2.69731 5.46861 -24.3754
ltibia 44.0019
lfoot 9.02657 -8.36394
ltoes -25.8321
